<?xml version="1.0" encoding="UTF-8" standalone="no"?>
<svg xmlns="http://www.w3.org/2000/svg" xmlns:xlink="http://www.w3.org/1999/xlink" width="48" height="48">
  <defs>
    <linearGradient id="d">
      <stop offset="0" stop-color="#fff"/>
      <stop offset="1" stop-color="#f2f2f2" stop-opacity="0"/>
    </linearGradient>
    <linearGradient id="a">
      <stop offset="0" stop-color="#cdcdcd"/>
      <stop offset=".70830673" stop-color="#fff" stop-opacity=".31623933"/>
      <stop offset="1" stop-color="#d6d6d6"/>
    </linearGradient>
    <linearGradient id="e">
      <stop offset="0" stop-color="#fff" stop-opacity="0"/>
      <stop offset=".61763078" stop-color="#fff" stop-opacity="0"/>
      <stop offset=".7459709" stop-color="#fff"/>
      <stop offset="1" stop-color="#fff" stop-opacity="0"/>
    </linearGradient>
    <linearGradient id="b">
      <stop offset="0" stop-color="#dadad6"/>
      <stop offset=".5" stop-color="#e4e4e1" stop-opacity=".49803922"/>
      <stop offset="1" stop-color="#dadad6"/>
    </linearGradient>
    <linearGradient id="c">
      <stop offset="0" stop-color="#cdcdcd"/>
      <stop offset=".5" stop-color="#fff" stop-opacity=".31623933"/>
      <stop offset="1" stop-color="#d6d6d6"/>
    </linearGradient>
    <linearGradient xlink:href="#a" id="l" x1="25" x2="27.84375" y1="7.1875" y2="6.84375" gradientTransform="translate(0 1)" gradientUnits="userSpaceOnUse"/>
    <linearGradient xlink:href="#b" id="j" x1="19.959988" x2="23.871283" y1="8.2504673" y2="8.9535227" gradientUnits="userSpaceOnUse"/>
    <linearGradient xlink:href="#c" id="g" x1="20.993088" x2="31.603107" y1="24.096687" y2="23.301191" gradientTransform="translate(0 1)" gradientUnits="userSpaceOnUse"/>
    <linearGradient xlink:href="#d" id="i" x1="25.279068" x2="25.146484" y1="38.940193" y2="35.051105" gradientUnits="userSpaceOnUse"/>
    <radialGradient xlink:href="#e" id="k" cx="23.881792" cy="-.72340405" r="15.475195" fx="23.881792" fy="-.72340405" gradientTransform="matrix(.34979 .00531 -.0036 .14454 15.580212 17.009489)" gradientUnits="userSpaceOnUse"/>
    <radialGradient xlink:href="#b" id="h" cx="27.658827" cy="39.502598" r="17.254612" fx="27.658827" fy="39.502598" gradientTransform="matrix(-.37671 -.25718 .15114 -.22138 31.38654 52.921005)" gradientUnits="userSpaceOnUse"/>
    <filter id="f" width="1.1137971" height="2.4183002" x="-.05689854" y="-.7091501">
      <feGaussianBlur stdDeviation=".97980729"/>
    </filter>
  </defs>
  <path fill-rule="evenodd" d="M44.401966 41.570206a20.664303 1.657997 0 1 1-41.3286056 0 20.664303 1.657997 0 1 1 41.3286056 0z" color="#000" enable-background="accumulate" filter="url(#f)" opacity=".4" overflow="visible" style="marker:none" transform="matrix(.91962 0 0 2.15211 2.2376422 -47.98043)"/>
  <path fill="url(#g)" d="M19.228391 5.6023853c-.954323.25-1.429749 3.3036835.47716 3.5v7.9999997L9.7160905 34.020082c-1.1943144 2.022637-2.5242794 5.183801 1.4284755 7.18855C13.697754 42.271912 18.23556 43 24 43c5.764441 0 10.302246-.728088 12.855434-1.791368 3.952755-2.004749 2.62279-5.165913 1.428476-7.18855l-9.989462-16.917697v-8c1.906911-.1963165 1.431485-3.25.477162-3.5" opacity=".5"/>
  <path fill="url(#h)" stroke="#fff" stroke-linecap="round" stroke-linejoin="round" stroke-opacity=".5" d="M38.314835 37.999999C38.314835 40.209138 33.905865 42 24 42c-9.999616 0-14.3148348-1.790862-14.3148348-4.000001 0-2.209139 6.4089698-4.000001 14.3148348-4.000001 7.905864 0 14.314835 1.790862 14.314835 4.000001z" opacity=".5"/>
  <path fill="url(#i)" d="M24 33.53125c-3.988338 0-7.599987.447005-10.25 1.1875-1.325007.370247-2.397579.82189-3.1875 1.34375-.7899212.52186-1.34375 1.158494-1.34375 1.9375 0 .704938.3665816 1.365724 1 1.90625.633418.540526 1.546775 1.000996 2.75 1.375 2.40645.748008 6.00345 1.1875 11.03125 1.1875 4.981189 0 8.582766-.439903 11-1.1875 1.208617-.373799 2.140751-.835479 2.78125-1.375.640499-.539521 1-1.197996 1-1.90625 0-.779006-.553829-1.41564-1.34375-1.9375s-1.862493-.973503-3.1875-1.34375c-2.650013-.740495-6.261663-1.1875-10.25-1.1875zm0 .9375c3.917527 0 7.469062.449029 10 1.15625 1.265469.353611 2.278681.783503 2.9375 1.21875.658819.435247.90625.830686.90625 1.15625 0 .396315-.191758.769914-.6875 1.1875s-1.305641.837441-2.4375 1.1875c-2.263718.700118-5.794074 1.15625-10.71875 1.15625-4.971816 0-8.530187-.456542-10.78125-1.15625-1.125532-.349854-1.918077-.770919-2.40625-1.1875-.488173-.416581-.65625-.787868-.65625-1.1875 0-.325564.247431-.721003.90625-1.15625.658819-.435247 1.672031-.865139 2.9375-1.21875 2.530938-.707221 6.082473-1.15625 10-1.15625z" color="#000" enable-background="accumulate" font-family="Sans" font-weight="400" opacity=".5" overflow="visible" style="text-indent:0;text-align:start;line-height:normal;text-transform:none;block-progression:tb;marker:none;-inkscape-font-specification:Sans"/>
  <path fill="url(#j)" stroke="#888a85" stroke-linecap="round" stroke-linejoin="round" stroke-width="1.44068921" d="M32.425897 8.5a8.2129488 1.5 0 1 1-16.425898 0 8.2129488 1.5 0 1 1 16.425898 0z" transform="matrix(.62274 0 0 .77366 8.9215119 -.5760963)"/>
  <path fill-opacity=".03773582" d="M12.219689 41.089243c-1.502602-.795495-.90598-3.226175.331458-4.993942 1.237437-1.767767 8.869166-17.324116 9.311107-18.384776V8.9703418l1.928082.1198685.04419 8.9640647s-3.687736 13.658883-5.604427 20.648482c-.320312 1.168082-1.281631 2.298098.265165 3.623923-3.270369-.464039-4.087963-.552427-6.275575-1.237437z"/>
  <path fill-opacity=".05660376" d="M37.07042 40.333881c1.500589-.798789.839689-3.314563-.397749-5.08233-1.237437-1.767767-8.869166-17.324116-9.311107-18.384776V8.7984668l-.943707.1667435-.02857 8.2453147s5.156486 13.815133 7.073177 20.804732c.320312 1.168082 1.281631 2.298098-.265165 3.623923 3.270369-.464039 1.849598-.228145 3.873121-1.305299z"/>
  <path fill="none" stroke="#d3d7cf" stroke-linecap="round" stroke-linejoin="round" d="M28.294448 9.102385c-1.58305.2710437-2.05558.4963234-4.290227.4963234-2.234646 0-2.95492-.2861038-4.314295-.4494481" opacity=".5"/>
  <path fill="none" stroke="url(#k)" stroke-linecap="round" stroke-linejoin="round" stroke-width="2" d="M28.018528 17.634432c-.933176.828427-3.245218.919843-4.074627.919843-.942523 0-2.293111.06326-4.074628-.831455" opacity=".75"/>
  <path fill="none" stroke="#fff" stroke-linecap="round" stroke-linejoin="round" stroke-width="1.99999988" d="M38.579484 36.308938c-3.323585 1.896783-11.683116 2.606091-14.637126 2.606091-3.356875 0-8.042108-.355159-14.3871303-2.403716" opacity=".1"/>
  <path fill="url(#l)" d="M18.9375 6.8124999c-.15625 1.234375-.05091 1.6350764 1.25 1.890625 1.306028.2565529 2.171578.3556054 3.749703.3868554.989617.019596 2.801884-.148837 3.835498-.3803981.803655-.1800434 1.038868-.3403373 1.232823-.6608117.298771-.4936626.169357-1.0249405.09296-1.2436905-1.002843.5792354-2.864114.8980449-5.285989.8511699s-4.234375-.40625-4.874995-.84375z" opacity=".5"/>
  <path fill="none" stroke="#2e3436" stroke-linecap="round" stroke-linejoin="round" stroke-width="1.99999988" d="M38.579484 38.34187c-3.323585 1.896783-11.683116 2.517703-14.637126 2.517703-3.356875 0-8.042108-.266771-14.3871303-2.315328" opacity=".1"/>
  <path fill="none" stroke="#888a85" stroke-width=".99999988" d="M19.228391 5.6023853c-.954323.25-1.49604 3.0385185.47716 3.5v7.9999997L9.7160905 34.020082c-1.1943144 2.022637-2.5242794 5.183801 1.4284755 7.18855C13.697754 42.271912 18.23556 43 24 43c5.764441 0 10.302246-.728088 12.855434-1.791368 3.952755-2.004749 2.62279-5.165913 1.428476-7.18855l-9.989462-16.917697v-8c2.127882-.5498699 1.431485-3.25.477162-3.5"/>
</svg>