<?xml version="1.0" encoding="UTF-8" standalone="no"?>
<svg xmlns="http://www.w3.org/2000/svg" xmlns:xlink="http://www.w3.org/1999/xlink" width="40" height="40" version="1.0"><defs><linearGradient id="b"><stop offset="0"/><stop offset="1" stop-opacity="0"/></linearGradient><linearGradient id="a"><stop offset="0" stop-color="#fff"/><stop offset="1" stop-color="#c9c9c9"/></linearGradient><linearGradient id="c"><stop offset="0"/><stop offset="1" stop-opacity="0"/></linearGradient><linearGradient id="d"><stop offset="0" stop-color="#f4d9b1"/><stop offset="1" stop-color="#df9725"/></linearGradient><linearGradient xlink:href="#a" id="f" x1="30.935921" x2="30.935921" y1="29.553486" y2="35.803486" gradientUnits="userSpaceOnUse"/><linearGradient xlink:href="#b" id="i" x1="20.661695" x2="22.626925" y1="35.817974" y2="36.217758" gradientTransform="rotate(10.462 17.59597784 32.70691273)" gradientUnits="userSpaceOnUse"/><linearGradient xlink:href="#b" id="j" x1="22.686766" x2="21.408455" y1="36.3904" y2="35.739632" gradientTransform="scale(-1 1) rotate(12.127 -8.90889714 -263.46923882)" gradientUnits="userSpaceOnUse"/><radialGradient xlink:href="#c" id="e" cx="31.112698" cy="19.008621" r="8.6620579" fx="31.112698" fy="19.008621" gradientUnits="userSpaceOnUse"/><radialGradient xlink:href="#c" id="g" cx="31.112698" cy="19.008621" r="8.6620579" fx="31.112698" fy="19.008621" gradientUnits="userSpaceOnUse"/><radialGradient xlink:href="#d" id="h" cx="29.344931" cy="17.064077" r="9.1620579" fx="29.344931" fy="17.064077" gradientTransform="matrix(.788 0 0 .788 6.221198 3.617627)" gradientUnits="userSpaceOnUse"/></defs><g transform="translate(-10.9876857 -7.177754)"><path fill="url(#e)" fill-rule="evenodd" d="M39.774755 19.008621c0 4.783923-3.878135 8.662058-8.662057 8.662058-4.783923 0-8.662058-3.878135-8.662058-8.662058 0-4.783922 3.878135-8.662058 8.662058-8.662058 4.783922 0 8.662057 3.878136 8.662057 8.662058z" color="#000" overflow="visible" style="marker:none" transform="matrix(1.77551 0 0 .95918 -24.25322 18.77153)"/><path fill="#edd400" fill-rule="evenodd" stroke="#c4a000" stroke-linecap="round" stroke-linejoin="round" d="M25.986174 41.636039h10.606602c3.005204 0 5.980484-1.101932 7.071067-4.242641 1.035639-2.982476.176777-8.662058-6.540737-13.258252H24.57196c-6.717514 4.24264-7.556991 10.044831-6.010407 13.435028 1.575595 3.45379 4.24264 4.065865 7.424621 4.065865z" color="#000" overflow="visible" style="marker:none"/><path fill="url(#f)" fill-rule="evenodd" d="M26.693281 25.726136c3.18198 2.828427 4.596194 13.081476 4.596194 13.081476s1.414213-10.253048 3.889087-13.258252l-8.485281.176776z" color="#000" overflow="visible" style="marker:none"/><path fill="#fef8c7" fill-rule="evenodd" d="M28.972721 26.786797s-2.151323 1.660335-1.965991 3.660533c-2.041226-1.800794-2.099873-5.251524-2.099873-5.251524l4.065864 1.590991z" color="#000" overflow="visible" style="marker:none"/><path fill="none" stroke="#fff" stroke-linecap="round" stroke-linejoin="round" stroke-width=".99999976" d="m25.914862 40.593933 10.493447-.0221c2.639723 0 5.315661-.749169 6.273612-3.507917.909689-2.61976.03028-7.827364-5.870279-11.864587l-11.712225-.243065c-5.900557 3.726667-7.04262 8.823219-5.662029 12.044182 1.380592 3.220963 3.395211 3.57139 6.477474 3.593487z" color="#000" opacity=".7" overflow="visible" style="marker:none"/><path fill="#fef8c7" fill-rule="evenodd" d="M33.410795 26.786797s2.151323 1.660335 1.965991 3.660533c2.041226-1.800794 2.099873-5.251524 2.099873-5.251524l-4.065864 1.590991z" color="#000" overflow="visible" style="marker:none"/><path fill="url(#g)" fill-rule="evenodd" d="M39.774755 19.008621a8.6620579 8.6620579 0 1 1-17.324115 0 8.6620579 8.6620579 0 1 1 17.324115 0z" color="#000" overflow="visible" style="marker:none" transform="translate(-.125 3.5)"/><path fill="url(#h)" fill-rule="evenodd" stroke="#c17d11" stroke-linecap="round" stroke-linejoin="round" d="M39.774755 19.008621c0 4.783923-3.878135 8.662058-8.662057 8.662058-4.783923 0-8.662058-3.878135-8.662058-8.662058 0-4.783922 3.878135-8.662058 8.662058-8.662058 4.783922 0 8.662057 3.878136 8.662057 8.662058z" color="#000" overflow="visible" style="marker:none"/><path fill="none" stroke="#fff" stroke-linecap="round" stroke-linejoin="round" stroke-width="1.14012825" d="M39.774755 19.008621c0 4.783923-3.878135 8.662058-8.662057 8.662058-4.783923 0-8.662058-3.878135-8.662058-8.662058 0-4.783922 3.878135-8.662058 8.662058-8.662058 4.783922 0 8.662057 3.878136 8.662057 8.662058z" color="#000" opacity=".19620254" overflow="visible" style="marker:none" transform="translate(3.823927 2.336267) scale(.8771)"/><path fill="url(#i)" fill-rule="evenodd" d="M21.85179 40.775197c-1.247607-.544969-1.805994-1.858277-1.805994-1.858277.841281-4.069136 3.719925-7.046216 3.719925-7.046216s-2.279321 6.411514-1.913931 8.904493z" color="#000" opacity=".22784807" overflow="visible" style="marker:none"/><path fill="url(#j)" fill-rule="evenodd" d="M41.194997 39.854346c1.340626-.862228 1.788755-2.142946 1.788755-2.142946-.95912-4.042983-3.960524-6.702196-3.960524-6.702196s2.464593 6.342602 2.171769 8.845142z" color="#000" opacity=".22784807" overflow="visible" style="marker:none"/></g></svg>